<?xml version="1.0" encoding="UTF-8" standalone="no"?>
<!-- Created with Inkscape (http://www.inkscape.org/) -->

<svg
   xmlns:dc="http://purl.org/dc/elements/1.1/"
   xmlns:cc="http://creativecommons.org/ns#"
   xmlns:rdf="http://www.w3.org/1999/02/22-rdf-syntax-ns#"
   xmlns:svg="http://www.w3.org/2000/svg"
   xmlns="http://www.w3.org/2000/svg"
   xmlns:sodipodi="http://sodipodi.sourceforge.net/DTD/sodipodi-0.dtd"
   xmlns:inkscape="http://www.inkscape.org/namespaces/inkscape"
   id="svg2"
   version="1.1"
   inkscape:version="0.91 r13725"
   xml:space="preserve"
   width="256.79874"
   height="60"
   viewBox="0 0 256.79874 60"
   sodipodi:docname="rs_logo_notag_white.svg"><metadata
     id="metadata8"><rdf:RDF><cc:Work
         rdf:about=""><dc:format>image/svg+xml</dc:format><dc:type
           rdf:resource="http://purl.org/dc/dcmitype/StillImage" /><dc:title></dc:title></cc:Work></rdf:RDF></metadata><defs
     id="defs6"><clipPath
       clipPathUnits="userSpaceOnUse"
       id="clipPath16"><path
         d="m 0,48 205.439,0 0,-48 L 0,0 0,48 Z"
         id="path18"
         inkscape:connector-curvature="0" /></clipPath></defs><sodipodi:namedview
     pagecolor="#ffffff"
     bordercolor="#666666"
     borderopacity="1"
     objecttolerance="10"
     gridtolerance="10"
     guidetolerance="10"
     inkscape:pageopacity="0"
     inkscape:pageshadow="2"
     inkscape:window-width="1920"
     inkscape:window-height="1017"
     id="namedview4"
     showgrid="false"
     inkscape:zoom="1.4174525"
     inkscape:cx="128.39937"
     inkscape:cy="30"
     inkscape:window-x="-8"
     inkscape:window-y="-8"
     inkscape:window-maximized="1"
     inkscape:current-layer="g10" /><g
     id="g10"
     inkscape:groupmode="layer"
     inkscape:label="Vector Smart Object"
     transform="matrix(1.25,0,0,-1.25,0,60)"><g
       id="g12"
       style="fill:#ffffff"><g
         id="g14"
         clip-path="url(#clipPath16)"
         style="fill:#ffffff"><g
           id="g20"
           transform="translate(15.9794,37.203)"
           style="fill:#ffffff"><path
             d="m 0,0 0.005,-5.271 -2.664,-0.003 c -1.109,-0.001 -2.145,-0.211 -3.112,-0.625 -0.965,-0.416 -1.816,-0.99 -2.545,-1.721 -0.73,-0.732 -1.301,-1.58 -1.714,-2.547 -0.415,-0.97 -0.621,-2.006 -0.62,-3.11 l 0.013,-13.328 -5.33,-0.004 -0.012,13.326 c -0.002,1.855 0.34,3.584 1.029,5.184 0.69,1.599 1.648,3.001 2.869,4.209 1.223,1.204 2.644,2.152 4.264,2.845 1.619,0.692 3.335,1.041 5.153,1.042 L 0,0 Z"
             style="fill:#ffffff;fill-opacity:1;fill-rule:nonzero;stroke:none"
             id="path22"
             inkscape:connector-curvature="0" /></g><g
           id="g24"
           transform="translate(24.1612,37.2107)"
           style="fill:#ffffff"><path
             d="m 0,0 0.049,-5.817 -3.938,-0.006 c 0.01,-3.577 3.942,-4.294 3.942,-4.294 L 0.025,-26.594 -5.187,-26.599 -5.212,-0.005 0,0 Z"
             style="fill:#ffffff;fill-opacity:1;fill-rule:nonzero;stroke:none"
             id="path26"
             inkscape:connector-curvature="0" /></g><g
           id="g28"
           transform="translate(40.282,15.9029)"
           style="fill:#ffffff"><path
             d="M 0,0 C 1.106,0.001 2.141,0.21 3.109,0.624 4.076,1.04 4.923,1.613 5.655,2.345 6.385,3.076 6.954,3.934 7.37,4.923 7.783,5.909 7.989,6.957 7.988,8.063 L 7.981,16.059 -0.015,16.052 C -1.121,16.05 -2.168,15.841 -3.153,15.426 -4.139,15.01 -4.999,14.437 -5.729,13.705 -6.458,12.974 -7.032,12.125 -7.443,11.158 -7.858,10.189 -8.064,9.153 -8.063,8.048 -8.062,6.942 -7.854,5.894 -7.437,4.909 -7.024,3.921 -6.449,3.064 -5.718,2.334 -4.987,1.603 -4.126,1.033 -3.14,0.618 -2.154,0.206 -1.106,-0.001 0,0 M 13.236,31.997 13.259,8.068 C 13.261,6.251 12.916,4.534 12.228,2.914 11.538,1.294 10.592,-0.128 9.389,-1.353 8.187,-2.579 6.774,-3.538 5.156,-4.231 3.539,-4.923 1.82,-5.27 0.005,-5.271 c -1.819,-0.002 -3.533,0.341 -5.154,1.03 -1.62,0.69 -3.044,1.646 -4.267,2.87 -1.225,1.223 -2.185,2.643 -2.876,4.262 -0.693,1.619 -1.039,3.335 -1.041,5.152 -10e-4,1.855 0.342,3.584 1.032,5.184 0.687,1.599 1.645,3.001 2.867,4.208 1.221,1.205 2.643,2.153 4.262,2.846 1.619,0.692 3.333,1.04 5.152,1.042 l 7.996,0.008 -0.01,10.661 5.27,0.005 z"
             style="fill:#ffffff;fill-opacity:1;fill-rule:nonzero;stroke:none"
             id="path30"
             inkscape:connector-curvature="0" /></g><g
           id="g32"
           transform="translate(63.0129,29.5468)"
           style="fill:#ffffff"><path
             d="m 0,0 c -1.577,-1.581 -2.366,-3.478 -2.364,-5.687 10e-4,-1.226 0.277,-2.391 0.832,-3.495 0.475,0.474 1.192,1.196 2.161,2.164 0.964,0.968 1.991,1.996 3.075,3.084 1.086,1.084 2.132,2.122 3.138,3.112 C 7.846,0.165 8.624,0.935 9.179,1.49 7.674,2.238 6.087,2.493 4.409,2.255 2.732,2.017 1.264,1.264 0,0 m 13.216,-9.523 3.735,-3.728 -1.835,-1.838 c -1.262,-1.265 -2.7,-2.234 -4.319,-2.906 -1.62,-0.675 -3.315,-1.01 -5.093,-1.012 -1.778,-10e-4 -3.477,0.331 -5.095,1.002 -1.621,0.669 -3.062,1.635 -4.327,2.898 -1.302,1.302 -2.274,2.772 -2.906,4.41 -0.633,1.637 -0.951,3.306 -0.952,5.005 -0.002,1.696 0.312,3.356 0.942,4.975 0.629,1.62 1.599,3.082 2.898,4.386 1.303,1.304 2.77,2.283 4.409,2.935 C 2.311,7.257 3.98,7.585 5.679,7.587 7.376,7.589 9.045,7.263 10.684,6.614 12.322,5.965 13.797,4.988 15.098,3.687 L 16.937,1.852 2.203,-12.91 c 1.501,-0.748 3.09,-0.995 4.771,-0.735 1.675,0.257 3.145,1.019 4.409,2.285 l 1.833,1.837 z"
             style="fill:#ffffff;fill-opacity:1;fill-rule:nonzero;stroke:none"
             id="path34"
             inkscape:connector-curvature="0" /></g><g
           id="g36"
           transform="translate(105.6481,37.2874)"
           style="fill:#ffffff"><path
             d="m 0,0 0.005,-5.271 -16.049,-0.016 c -0.751,0 -1.383,-0.258 -1.894,-0.772 -0.513,-0.515 -0.769,-1.146 -0.769,-1.896 0.001,-0.751 0.259,-1.391 0.772,-1.924 0.512,-0.532 1.145,-0.799 1.896,-0.798 l 10.662,0.01 c 1.104,10e-4 2.141,-0.206 3.11,-0.618 0.967,-0.415 1.814,-0.976 2.546,-1.687 0.732,-0.709 1.307,-1.549 1.721,-2.514 0.416,-0.969 0.622,-2.005 0.623,-3.11 10e-4,-1.107 -0.203,-2.143 -0.617,-3.109 -0.413,-0.969 -0.985,-1.82 -1.716,-2.551 -0.731,-0.731 -1.577,-1.303 -2.543,-1.719 -0.968,-0.415 -2.005,-0.623 -3.109,-0.625 l -15.992,-0.015 -0.005,5.272 15.992,0.015 c 0.788,10e-4 1.44,0.258 1.952,0.772 0.513,0.514 0.769,1.167 0.768,1.955 0,0.75 -0.257,1.382 -0.772,1.895 -0.513,0.511 -1.165,0.768 -1.953,0.768 l -10.663,-0.011 c -1.106,-10e-4 -2.141,0.206 -3.108,0.62 -0.971,0.414 -1.808,0.985 -2.519,1.714 -0.712,0.73 -1.276,1.578 -1.693,2.548 -0.416,0.964 -0.621,2.002 -0.623,3.107 -10e-4,1.107 0.203,2.142 0.617,3.112 0.415,0.966 0.978,1.806 1.689,2.518 0.709,0.711 1.545,1.274 2.515,1.69 0.967,0.414 2.001,0.624 3.108,0.625 L 0,0 Z"
             style="fill:#ffffff;fill-opacity:1;fill-rule:nonzero;stroke:none"
             id="path38"
             inkscape:connector-curvature="0" /></g><g
           id="g40"
           transform="translate(125.8667,15.9834)"
           style="fill:#ffffff"><path
             d="m 0,0 0.005,-5.271 -2.607,-0.003 c -1.816,-0.002 -3.533,0.342 -5.152,1.031 -1.621,0.69 -3.044,1.646 -4.266,2.869 -1.23,1.223 -2.187,2.644 -2.879,4.262 -0.69,1.619 -1.04,3.336 -1.042,5.152 l -0.016,16.997 5.272,0.005 0.008,-9.06 10.662,0.01 0.005,-5.271 -10.662,-0.011 -0.019,-2.379 c 0.001,-0.315 -0.01,-1.135 -0.01,-1.135 0.054,-0.74 0.24,-1.304 0.659,-2.29 0.412,-0.987 0.986,-1.845 1.72,-2.574 0.73,-0.731 1.587,-1.302 2.578,-1.716 0.985,-0.413 2.031,-0.619 3.137,-0.618 L 0,0 Z"
             style="fill:#ffffff;fill-opacity:1;fill-rule:nonzero;stroke:none"
             id="path42"
             inkscape:connector-curvature="0" /></g><g
           id="g44"
           transform="translate(150.804,37.2695)"
           style="fill:#ffffff"><path
             d="m 0,0 0.023,-23.928 c 0.001,-1.856 -0.342,-3.584 -1.033,-5.183 -0.687,-1.601 -1.634,-3.012 -2.836,-4.238 -1.206,-1.225 -2.605,-2.183 -4.204,-2.876 -1.598,-0.692 -3.326,-1.04 -5.179,-1.042 l -2.666,-0.003 -0.004,5.271 2.666,0.002 c 1.101,0.002 2.139,0.209 3.106,0.626 0.969,0.417 1.814,0.989 2.547,1.72 0.729,0.732 1.301,1.593 1.714,2.578 0.412,0.987 0.618,2.034 0.617,3.139 l 0,0.061 c -1.103,-0.87 -3.198,-2.657 -6.24,-2.66 -2.249,-0.002 -4.646,0.86 -6.052,1.874 -1.53,1.106 -2.873,3.128 -3.431,4.798 -0.581,1.739 -0.656,4.757 -0.657,6.574 l -0.013,13.267 5.272,0.005 0.012,-13.267 c 0.001,-1.34 0.003,-3.519 0.211,-4.546 0.529,-2.635 2.085,-3.662 4.706,-3.66 2.81,0.003 4.781,0.967 5.778,4.42 0.286,0.975 0.405,2.456 0.404,3.797 L -5.271,-0.005 0,0 Z"
             style="fill:#ffffff;fill-opacity:1;fill-rule:nonzero;stroke:none"
             id="path46"
             inkscape:connector-curvature="0" /></g><g
           id="g48"
           transform="translate(160.469,48)"
           style="fill:#ffffff"><path
             d="M 0,0 0.035,-37.255 -5.234,-37.26 -5.27,-0.005 0,0 Z"
             style="fill:#ffffff;fill-opacity:1;fill-rule:nonzero;stroke:none"
             id="path50"
             inkscape:connector-curvature="0" /></g><g
           id="g52"
           transform="translate(170.7348,29.6481)"
           style="fill:#ffffff"><path
             d="m 0,0 c -1.576,-1.581 -2.366,-3.478 -2.364,-5.687 10e-4,-1.226 0.279,-2.391 0.832,-3.495 0.475,0.474 1.194,1.196 2.161,2.164 0.966,0.968 1.993,1.996 3.076,3.084 1.085,1.084 2.132,2.122 3.137,3.112 C 7.85,0.165 8.627,0.936 9.178,1.49 7.678,2.238 6.088,2.493 4.411,2.255 2.734,2.017 1.261,1.264 0,0 m 13.218,-9.523 3.734,-3.728 -1.835,-1.838 c -1.261,-1.265 -2.703,-2.234 -4.319,-2.906 -1.62,-0.675 -3.316,-1.01 -5.091,-1.012 -1.781,-10e-4 -3.478,0.331 -5.099,1.002 -1.617,0.669 -3.06,1.635 -4.325,2.898 -1.303,1.302 -2.272,2.772 -2.908,4.41 -0.631,1.637 -0.949,3.306 -0.95,5.005 -0.002,1.696 0.313,3.356 0.941,4.975 0.632,1.62 1.598,3.082 2.9,4.386 1.303,1.304 2.773,2.283 4.408,2.935 1.64,0.653 3.309,0.981 5.008,0.983 1.693,0.002 3.364,-0.324 5.003,-0.973 1.639,-0.649 3.112,-1.626 4.414,-2.927 L 16.938,1.852 2.206,-12.909 c 1.501,-0.749 3.088,-0.996 4.767,-0.736 1.679,0.257 3.147,1.019 4.41,2.285 l 1.835,1.837 z"
             style="fill:#ffffff;fill-opacity:1;fill-rule:nonzero;stroke:none"
             id="path54"
             inkscape:connector-curvature="0" /></g><g
           id="g56"
           transform="translate(205.434,37.3813)"
           style="fill:#ffffff"><path
             d="m 0,0 0.005,-5.271 -2.664,-0.003 c -1.104,-0.001 -2.141,-0.211 -3.108,-0.625 -0.969,-0.416 -1.817,-0.99 -2.546,-1.722 -0.73,-0.731 -1.301,-1.58 -1.715,-2.546 -0.413,-0.97 -0.62,-2.006 -0.62,-3.11 l 0.013,-13.328 -5.332,-0.004 -0.012,13.326 c -0.002,1.855 0.343,3.584 1.032,5.184 0.689,1.599 1.645,3.001 2.869,4.209 1.224,1.204 2.644,2.152 4.262,2.845 1.618,0.692 3.338,1.041 5.152,1.042 L 0,0 Z"
             style="fill:#ffffff;fill-opacity:1;fill-rule:nonzero;stroke:none"
             id="path58"
             inkscape:connector-curvature="0" /></g></g></g></g></svg>